<svg width="34" height="34" viewBox="0 0 34 34" fill="none" xmlns="http://www.w3.org/2000/svg">
<path d="M16.9999 2.8335C9.17992 2.8335 2.83325 9.18016 2.83325 17.0002C2.83325 24.8202 9.17992 31.1668 16.9999 31.1668C24.8199 31.1668 31.1666 24.8202 31.1666 17.0002C31.1666 9.18016 24.8199 2.8335 16.9999 2.8335ZM16.9999 7.0835C19.3516 7.0835 21.2499 8.98183 21.2499 11.3335C21.2499 13.6852 19.3516 15.5835 16.9999 15.5835C14.6483 15.5835 12.7499 13.6852 12.7499 11.3335C12.7499 8.98183 14.6483 7.0835 16.9999 7.0835ZM16.9999 27.2002C15.3167 27.2002 13.6597 26.7836 12.1766 25.9877C10.6934 25.1918 9.43035 24.0412 8.49992 22.6385C8.54242 19.8193 14.1666 18.2752 16.9999 18.2752C19.8191 18.2752 25.4574 19.8193 25.4999 22.6385C24.5695 24.0412 23.3064 25.1918 21.8233 25.9877C20.3402 26.7836 18.6831 27.2002 16.9999 27.2002Z" fill="#424758"/>
</svg>
