<svg width="22" height="22" viewBox="0 0 22 22" fill="none" xmlns="http://www.w3.org/2000/svg">
<path d="M8.87804 5.01703C8.59281 1.74164 5.17009 0.134511 5.02524 0.0689143C4.88935 0.00480797 4.73703 -0.014573 4.59068 0.0107714C0.639321 0.665252 0.0449744 2.96115 0.0210811 3.05657C-0.0117722 3.19074 -0.00579889 3.32939 0.0360144 3.4591C4.74897 18.0575 14.5437 20.7633 17.7634 21.6534C18.0113 21.7219 18.2159 21.7771 18.3712 21.8278C18.4458 21.8531 18.5235 21.8636 18.6011 21.8636C18.7072 21.8636 18.8132 21.8412 18.9103 21.7965C19.0088 21.7518 21.3354 20.6575 21.9044 17.0884C21.9298 16.9334 21.9044 16.7723 21.8327 16.6322C21.7819 16.5338 20.5649 14.2215 17.1899 13.4045C16.954 13.3434 16.7121 13.406 16.5299 13.5611C15.4651 14.469 13.9942 15.4365 13.3595 15.5364C9.10503 13.4597 6.72913 9.47466 6.63953 8.7188C6.58727 8.29391 7.56241 6.80157 8.68391 5.58802C8.82577 5.43447 8.89745 5.22575 8.87804 5.01703Z" fill="white"/>
</svg>
