<svg width="20" height="20" viewBox="0 0 20 20" fill="none" xmlns="http://www.w3.org/2000/svg">
<path d="M5.73142 13.3468C7.5328 13.3468 9.00666 11.8483 9.00666 10.0306C9.00666 9.08076 8.53994 8.18007 7.60649 7.41857C6.67305 6.65708 5.96887 5.52712 5.73142 4.33984C5.49396 5.52712 4.79797 6.66527 3.85634 7.41857C2.91471 8.17188 2.45618 9.08894 2.45618 10.0306C2.45618 11.8483 3.93004 13.3468 5.73142 13.3468Z" stroke="#0092B8" stroke-width="1.63762" stroke-linecap="round" stroke-linejoin="round"/>
<path d="M10.2841 5.404C10.8473 4.50423 11.2465 3.51176 11.4632 2.47266C11.8726 4.51968 13.1009 6.48483 14.7385 7.79493C16.3761 9.10502 17.1949 10.6608 17.1949 12.2984C17.1996 13.4302 16.8681 14.538 16.2425 15.4812C15.6168 16.4244 14.7252 17.1606 13.6807 17.5965C12.6361 18.0324 11.4857 18.1483 10.3752 17.9296C9.26466 17.7108 8.2441 17.1673 7.44287 16.3679" stroke="#0092B8" stroke-width="1.63762" stroke-linecap="round" stroke-linejoin="round"/>
</svg>
