<svg width="20" height="20" viewBox="0 0 20 20" fill="none" xmlns="http://www.w3.org/2000/svg">
<path d="M6.55054 1.6377L8.0899 3.17706" stroke="#E7000B" stroke-width="1.63762" stroke-linecap="round" stroke-linejoin="round"/>
<path d="M11.5616 3.17706L13.101 1.6377" stroke="#E7000B" stroke-width="1.63762" stroke-linecap="round" stroke-linejoin="round"/>
<path d="M7.3694 5.83826V5.01945C7.35456 4.68763 7.4071 4.35624 7.52385 4.04527C7.6406 3.73431 7.81915 3.45023 8.04871 3.21017C8.27827 2.97011 8.55409 2.77905 8.85953 2.64851C9.16496 2.51798 9.49367 2.45068 9.82583 2.45068C10.158 2.45068 10.4867 2.51798 10.7921 2.64851C11.0976 2.77905 11.3734 2.97011 11.603 3.21017C11.8325 3.45023 12.0111 3.73431 12.1278 4.04527C12.2446 4.35624 12.2971 4.68763 12.2823 5.01945V5.83826" stroke="#E7000B" stroke-width="1.63762" stroke-linecap="round" stroke-linejoin="round"/>
<path d="M9.8257 16.376C7.12363 16.376 4.91284 14.1652 4.91284 11.4631V9.00669C4.91284 8.13804 5.25791 7.30497 5.87214 6.69074C6.48636 6.07651 7.31944 5.73145 8.18808 5.73145H11.4633C12.332 5.73145 13.165 6.07651 13.7793 6.69074C14.3935 7.30497 14.7386 8.13804 14.7386 9.00669V11.4631C14.7386 14.1652 12.5278 16.376 9.8257 16.376Z" stroke="#E7000B" stroke-width="1.63762" stroke-linecap="round" stroke-linejoin="round"/>
<path d="M9.82568 16.3761V9.00684" stroke="#E7000B" stroke-width="1.63762" stroke-linecap="round" stroke-linejoin="round"/>
<path d="M5.34682 7.36948C3.76652 7.20572 2.45642 5.81374 2.45642 4.09424" stroke="#E7000B" stroke-width="1.63762" stroke-linecap="round" stroke-linejoin="round"/>
<path d="M4.91294 10.6445H1.6377" stroke="#E7000B" stroke-width="1.63762" stroke-linecap="round" stroke-linejoin="round"/>
<path d="M2.45642 17.1952C2.45642 15.4757 3.8484 14.0018 5.5679 13.9199" stroke="#E7000B" stroke-width="1.63762" stroke-linecap="round" stroke-linejoin="round"/>
<path d="M17.1705 4.09424C17.1705 5.81374 15.8604 7.20572 14.3047 7.36948" stroke="#E7000B" stroke-width="1.63762" stroke-linecap="round" stroke-linejoin="round"/>
<path d="M18.0138 10.6445H14.7385" stroke="#E7000B" stroke-width="1.63762" stroke-linecap="round" stroke-linejoin="round"/>
<path d="M14.0835 13.9199C15.803 14.0018 17.195 15.4757 17.195 17.1952" stroke="#E7000B" stroke-width="1.63762" stroke-linecap="round" stroke-linejoin="round"/>
</svg>
