<svg width="28" height="28" viewBox="0 0 28 28" fill="none" xmlns="http://www.w3.org/2000/svg">
<rect width="28" height="27.9533" fill="#FF0000" fill-opacity="0.01"/>
<path d="M14.0002 2.79541C20.1871 2.79551 25.2005 7.62831 25.1897 13.5952C25.1897 15.74 24.5377 17.7398 23.4124 19.4224C23.3639 19.4815 23.3207 19.5517 23.2776 19.6216C23.1485 19.8526 23.0677 20.1211 23.0676 20.4058L24.2581 25.1577L19.7346 23.4966C19.5355 23.4106 19.3147 23.3677 19.0833 23.3677C18.8733 23.3677 18.6682 23.4052 18.4797 23.4751C18.4797 23.4805 18.4744 23.481 18.469 23.481C18.437 23.4916 18.4102 23.5021 18.3782 23.5181C17.0375 24.0664 15.5563 24.3735 14.0002 24.3735C7.81337 24.3735 2.80013 19.546 2.80005 13.5845C2.80005 7.62826 7.81332 2.79541 14.0002 2.79541ZM8.8313 12.2563C7.87822 12.2563 7.10767 13.0256 7.10767 13.9771C7.10783 14.9284 7.87832 15.6968 8.8313 15.6968C9.78405 15.6965 10.5538 14.9282 10.554 13.9771C10.554 13.0257 9.78415 12.2566 8.8313 12.2563ZM14.0002 12.2563C13.0472 12.2563 12.2766 13.0256 12.2766 13.9771C12.2768 14.9284 13.0473 15.6968 14.0002 15.6968C14.9531 15.6967 15.7227 14.9283 15.7229 13.9771C15.7229 13.0256 14.9532 12.2565 14.0002 12.2563ZM19.1692 12.2563C18.2162 12.2564 17.4465 13.0256 17.4465 13.9771C17.4467 14.9284 18.2163 15.6967 19.1692 15.6968C20.1222 15.6968 20.8927 14.9284 20.8928 13.9771C20.8928 13.0256 20.1223 12.2563 19.1692 12.2563Z" fill="black"/>
<mask id="mask0_27_8518" style="mask-type:luminance" maskUnits="userSpaceOnUse" x="2" y="2" width="24" height="24">
<path d="M14.0002 2.79541C20.1871 2.79551 25.2005 7.62831 25.1897 13.5952C25.1897 15.74 24.5377 17.7398 23.4124 19.4224C23.3639 19.4815 23.3207 19.5517 23.2776 19.6216C23.1485 19.8526 23.0677 20.1211 23.0676 20.4058L24.2581 25.1577L19.7346 23.4966C19.5355 23.4106 19.3147 23.3677 19.0833 23.3677C18.8733 23.3677 18.6682 23.4052 18.4797 23.4751C18.4797 23.4805 18.4744 23.481 18.469 23.481C18.437 23.4916 18.4102 23.5021 18.3782 23.5181C17.0375 24.0664 15.5563 24.3735 14.0002 24.3735C7.81337 24.3735 2.80013 19.546 2.80005 13.5845C2.80005 7.62826 7.81332 2.79541 14.0002 2.79541ZM8.8313 12.2563C7.87822 12.2563 7.10767 13.0256 7.10767 13.9771C7.10783 14.9284 7.87832 15.6968 8.8313 15.6968C9.78405 15.6965 10.5538 14.9282 10.554 13.9771C10.554 13.0257 9.78415 12.2566 8.8313 12.2563ZM14.0002 12.2563C13.0472 12.2563 12.2766 13.0256 12.2766 13.9771C12.2768 14.9284 13.0473 15.6968 14.0002 15.6968C14.9531 15.6967 15.7227 14.9283 15.7229 13.9771C15.7229 13.0256 14.9532 12.2565 14.0002 12.2563ZM19.1692 12.2563C18.2162 12.2564 17.4465 13.0256 17.4465 13.9771C17.4467 14.9284 18.2163 15.6967 19.1692 15.6968C20.1222 15.6968 20.8927 14.9284 20.8928 13.9771C20.8928 13.0256 20.1223 12.2563 19.1692 12.2563Z" fill="white"/>
</mask>
<g mask="url(#mask0_27_8518)">
<rect width="28" height="27.9533" fill="white"/>
</g>
</svg>
