<svg width="30" height="30" viewBox="0 0 30 30" fill="none" xmlns="http://www.w3.org/2000/svg">
<path d="M28.3488 1.90126C28.1269 1.84849 27.8935 1.87697 27.6908 1.98153L26.25 2.70106L24.7968 1.9745C24.6667 1.90942 24.5231 1.87554 24.3776 1.87554C24.2321 1.87554 24.0885 1.90942 23.9584 1.9745L22.4871 2.70165L21.0351 1.9745C20.9046 1.90894 20.7605 1.8748 20.6144 1.8748C20.4683 1.8748 20.3243 1.90894 20.1937 1.9745L18.75 2.6993L17.3173 1.97626C17.1871 1.91025 17.0433 1.87556 16.8973 1.87495C16.7514 1.87434 16.6073 1.90783 16.4765 1.97274L15 2.70223L13.5468 1.97391C13.4164 1.90886 13.2727 1.875 13.127 1.875C12.9813 1.875 12.8376 1.90886 12.7072 1.97391L11.25 2.70106L9.79449 1.97391C9.60685 1.87986 9.39308 1.85149 9.18741 1.89334C8.98174 1.9352 8.79606 2.04486 8.66011 2.20477C8.51358 2.37942 8.43457 2.60084 8.43745 2.8288V16.8749L8.44038 16.8778H19.6875C20.1847 16.8778 20.6616 17.0754 21.0133 17.427C21.3649 17.7786 21.5625 18.2555 21.5625 18.7528V24.8436C21.5625 26.6559 23.5001 28.1249 25.3125 28.1249H26.0156C26.8237 28.1249 27.5986 27.8039 28.17 27.2325C28.7414 26.6611 29.0625 25.8861 29.0625 25.078V2.81239C29.0626 2.60256 28.9924 2.39874 28.863 2.23355C28.7336 2.06836 28.5525 1.95136 28.3488 1.90126ZM24.375 14.0624H16.9043C16.398 14.0624 15.9609 13.6733 15.9386 13.1671C15.9329 13.0406 15.9529 12.9142 15.9974 12.7956C16.0419 12.677 16.1099 12.5687 16.1974 12.4771C16.2849 12.3856 16.3901 12.3127 16.5065 12.2629C16.623 12.2131 16.7483 12.1874 16.875 12.1874H24.3457C24.8519 12.1874 25.289 12.5765 25.3113 13.0827C25.317 13.2092 25.297 13.3356 25.2525 13.4542C25.208 13.5727 25.14 13.6811 25.0525 13.7726C24.965 13.8642 24.8598 13.9371 24.7434 13.9869C24.6269 14.0367 24.5016 14.0624 24.375 14.0624ZM24.375 9.37489H13.1543C12.648 9.37489 12.2109 8.98583 12.1886 8.47958C12.1829 8.35306 12.2029 8.2267 12.2474 8.10812C12.2919 7.98954 12.3599 7.8812 12.4474 7.78965C12.5349 7.69809 12.6401 7.62521 12.7565 7.57541C12.873 7.52561 12.9983 7.49992 13.125 7.49989H24.3457C24.8519 7.49989 25.289 7.88895 25.3113 8.3952C25.317 8.52172 25.297 8.64808 25.2525 8.76666C25.208 8.88524 25.14 8.99358 25.0525 9.08514C24.965 9.17669 24.8598 9.24957 24.7434 9.29937C24.6269 9.34917 24.5016 9.37486 24.375 9.37489Z" fill="#979797"/>
<path d="M19.6875 24.8438V19.6875C19.6875 19.4389 19.5887 19.2004 19.4129 19.0246C19.2371 18.8488 18.9986 18.75 18.75 18.75H2.8125C2.31519 18.7515 1.83873 18.95 1.48735 19.3019C1.13597 19.6538 0.938272 20.1306 0.9375 20.6279C0.9375 23.5898 1.27617 24.8215 1.78477 25.759C2.64785 27.351 4.21055 28.125 6.5625 28.125H20.9578C21.0041 28.125 21.0493 28.1114 21.0878 28.0858C21.1263 28.0602 21.1564 28.0238 21.1742 27.9811C21.1921 27.9384 21.1969 27.8915 21.1881 27.8461C21.1793 27.8007 21.1573 27.7589 21.1248 27.726C20.5705 27.1699 19.6875 26.4258 19.6875 24.8438Z" fill="#979797"/>
</svg>
