<svg width="20" height="20" viewBox="0 0 20 20" fill="none" xmlns="http://www.w3.org/2000/svg">
<path d="M4.91285 7.36941C6.2695 7.36941 7.36928 6.26962 7.36928 4.91297C7.36928 3.55632 6.2695 2.45654 4.91285 2.45654C3.5562 2.45654 2.45642 3.55632 2.45642 4.91297C2.45642 6.26962 3.5562 7.36941 4.91285 7.36941Z" stroke="#00A63E" stroke-width="1.63762" stroke-linecap="round" stroke-linejoin="round"/>
<path d="M6.64868 6.64893L9.82567 9.82591" stroke="#00A63E" stroke-width="1.63762" stroke-linecap="round" stroke-linejoin="round"/>
<path d="M16.3762 3.27539L6.64868 13.0029" stroke="#00A63E" stroke-width="1.63762" stroke-linecap="round" stroke-linejoin="round"/>
<path d="M4.91285 17.1951C6.2695 17.1951 7.36928 16.0953 7.36928 14.7387C7.36928 13.382 6.2695 12.2822 4.91285 12.2822C3.5562 12.2822 2.45642 13.382 2.45642 14.7387C2.45642 16.0953 3.5562 17.1951 4.91285 17.1951Z" stroke="#00A63E" stroke-width="1.63762" stroke-linecap="round" stroke-linejoin="round"/>
<path d="M12.1184 12.1182L16.3762 16.376" stroke="#00A63E" stroke-width="1.63762" stroke-linecap="round" stroke-linejoin="round"/>
</svg>
