<svg width="20" height="20" viewBox="0 0 20 20" fill="none" xmlns="http://www.w3.org/2000/svg">
<g clip-path="url(#clip0_37_2642)">
<path d="M9.02067 2.30421C9.05576 2.11638 9.15543 1.94673 9.30242 1.82465C9.44942 1.70257 9.63448 1.63574 9.82556 1.63574C10.0166 1.63574 10.2017 1.70257 10.3487 1.82465C10.4957 1.94673 10.5954 2.11638 10.6305 2.30421L11.491 6.85516C11.5521 7.17871 11.7094 7.47633 11.9422 7.70916C12.175 7.94199 12.4727 8.09923 12.7962 8.16035L17.3472 9.02092C17.535 9.056 17.7046 9.15567 17.8267 9.30267C17.9488 9.44966 18.0156 9.63473 18.0156 9.82581C18.0156 10.0169 17.9488 10.202 17.8267 10.3489C17.7046 10.4959 17.535 10.5956 17.3472 10.6307L12.7962 11.4913C12.4727 11.5524 12.175 11.7096 11.9422 11.9425C11.7094 12.1753 11.5521 12.4729 11.491 12.7965L10.6305 17.3474C10.5954 17.5352 10.4957 17.7049 10.3487 17.827C10.2017 17.949 10.0166 18.0159 9.82556 18.0159C9.63448 18.0159 9.44942 17.949 9.30242 17.827C9.15543 17.7049 9.05576 17.5352 9.02067 17.3474L8.1601 12.7965C8.09898 12.4729 7.94175 12.1753 7.70891 11.9425C7.47608 11.7096 7.17847 11.5524 6.85492 11.4913L2.30397 10.6307C2.11614 10.5956 1.94649 10.4959 1.82441 10.3489C1.70233 10.202 1.6355 10.0169 1.6355 9.82581C1.6355 9.63473 1.70233 9.44966 1.82441 9.30267C1.94649 9.15567 2.11614 9.056 2.30397 9.02092L6.85492 8.16035C7.17847 8.09923 7.47608 7.94199 7.70891 7.70916C7.94175 7.47633 8.09898 7.17871 8.1601 6.85516L9.02067 2.30421Z" stroke="#155DFC" stroke-width="1.63762" stroke-linecap="round" stroke-linejoin="round"/>
<path d="M16.3759 1.6377V4.91294" stroke="#155DFC" stroke-width="1.63762" stroke-linecap="round" stroke-linejoin="round"/>
<path d="M18.0136 3.27539H14.7384" stroke="#155DFC" stroke-width="1.63762" stroke-linecap="round" stroke-linejoin="round"/>
<path d="M3.27495 18.014C4.17938 18.014 4.91257 17.2808 4.91257 16.3764C4.91257 15.472 4.17938 14.7388 3.27495 14.7388C2.37052 14.7388 1.63733 15.472 1.63733 16.3764C1.63733 17.2808 2.37052 18.014 3.27495 18.014Z" stroke="#155DFC" stroke-width="1.63762" stroke-linecap="round" stroke-linejoin="round"/>
</g>
<defs>
<clipPath id="clip0_37_2642">
<rect width="19.6515" height="19.6515" fill="white"/>
</clipPath>
</defs>
</svg>
